<?xml version="1.0" standalone="no"?>
<!DOCTYPE svg PUBLIC "-//W3C//DTD SVG 20010904//EN"
 "http://www.w3.org/TR/2001/REC-SVG-20010904/DTD/svg10.dtd">
<svg version="1.0" xmlns="http://www.w3.org/2000/svg"
 width="1024.000000pt" height="1024.000000pt" viewBox="0 0 1024.000000 1024.000000"
 preserveAspectRatio="xMidYMid meet">
<metadata>
Created by potrace 1.16, written by Peter Selinger 2001-2019
</metadata>
<g transform="translate(0.000000,1024.000000) scale(0.100000,-0.100000)"
fill="#000000" stroke="none">
<path d="M3390 7920 c-190 -13 -371 -55 -554 -130 -54 -22 -103 -37 -109 -33
-6 4 -7 1 -2 -7 6 -10 4 -12 -9 -7 -9 4 -15 3 -12 -2 3 -4 -14 -18 -37 -31
-23 -13 -75 -45 -115 -72 -40 -27 -78 -45 -84 -42 -6 4 -8 3 -5 -3 4 -6 -33
-44 -81 -85 -307 -262 -516 -635 -591 -1056 -10 -53 -19 -91 -22 -84 -5 16 -2
-247 5 -393 6 -121 31 -256 70 -379 14 -44 23 -83 20 -88 -3 -4 0 -8 7 -8 6 0
9 -8 6 -20 -3 -13 -1 -18 6 -13 7 4 8 0 3 -13 -4 -10 -4 -15 0 -11 7 6 72
-120 77 -148 1 -5 5 -12 8 -15 16 -13 79 -133 74 -140 -3 -5 0 -12 6 -16 8 -5
10 -2 5 7 -4 8 1 3 12 -11 12 -14 19 -27 16 -29 -2 -2 2 -9 9 -15 8 -6 38 -42
67 -81 30 -38 79 -99 110 -134 30 -35 54 -68 52 -73 -1 -5 1 -7 6 -4 11 6 198
-193 194 -206 -1 -5 1 -7 6 -4 12 7 74 -58 65 -69 -5 -4 -3 -5 3 -2 14 8 67
-46 57 -58 -5 -4 -3 -5 3 -2 14 8 47 -26 37 -38 -5 -4 -3 -5 3 -2 14 8 87 -66
77 -78 -5 -4 -3 -5 3 -2 14 8 167 -146 157 -158 -4 -4 -3 -5 3 -2 14 8 167
-146 157 -158 -4 -4 -3 -5 3 -2 14 8 117 -96 107 -108 -5 -4 -3 -5 3 -2 14 8
57 -36 47 -48 -5 -4 -3 -5 3 -2 12 7 47 -25 39 -36 -3 -4 -2 -5 2 -2 11 8 123
-107 116 -119 -3 -6 -2 -8 2 -3 11 10 126 -103 118 -116 -3 -6 -1 -7 4 -4 12
7 46 -26 38 -36 -3 -4 -2 -5 2 -2 11 8 43 -27 36 -39 -3 -6 -2 -7 2 -3 11 10
326 -303 318 -316 -3 -6 -1 -7 4 -4 13 8 46 -27 36 -38 -5 -4 -3 -5 3 -2 10 6
43 -21 37 -30 -2 -1 0 -3 5 -4 15 -2 32 -22 25 -32 -3 -5 -2 -7 4 -4 13 8 56
-37 46 -48 -5 -4 -3 -5 3 -2 10 6 122 -98 117 -108 -2 -3 0 -5 5 -5 15 -1 121
-114 115 -123 -3 -6 -1 -7 4 -4 13 8 46 -27 36 -38 -5 -4 -3 -5 3 -2 14 8 47
-26 37 -38 -5 -4 -3 -5 3 -2 14 8 237 -216 227 -228 -5 -6 -4 -7 1 -2 12 9 87
-63 79 -76 -3 -6 -2 -7 4 -4 14 9 91 -75 88 -96 -2 -9 1 -15 6 -11 5 3 7 10 4
15 -4 5 -2 9 3 9 11 0 26 -30 23 -43 -1 -5 4 -5 10 -2 6 4 28 -9 48 -29 54
-53 95 -62 149 -34 27 15 290 270 730 709 l687 686 85 13 c104 15 256 53 330
82 129 50 286 141 411 238 l27 20 18 -28 c10 -15 17 -31 16 -35 -1 -5 1 -6 6
-3 5 3 28 -14 51 -37 l41 -43 -55 -57 c-60 -63 -62 -68 -41 -87 8 -6 14 -17
12 -23 -1 -7 -1 -8 2 -3 2 4 78 -65 168 -155 89 -89 160 -167 157 -172 -3 -6
-2 -7 4 -4 5 3 58 -43 119 -104 60 -60 105 -109 100 -109 -5 0 -3 -7 4 -15 7
-8 15 -13 19 -10 10 6 153 -139 146 -148 -3 -4 -2 -5 2 -2 3 3 36 -23 72 -58
36 -34 77 -70 91 -80 14 -10 19 -15 11 -11 -9 5 -12 3 -7 -5 4 -6 11 -9 16 -6
5 3 30 -1 55 -10 158 -53 342 42 401 208 23 65 20 162 -6 232 -21 54 -43 81
-239 278 -119 120 -215 223 -213 228 1 6 -1 8 -5 6 -9 -6 -137 113 -345 321
l-138 137 -51 -54 -51 -53 -48 47 c-27 27 -46 53 -43 59 3 6 2 8 -2 3 -5 -4
-19 2 -31 14 l-22 21 66 96 c36 53 84 138 108 187 39 85 104 270 104 299 0 7
33 48 73 91 39 43 92 103 116 134 24 31 48 55 53 53 5 -1 7 1 4 6 -2 4 18 42
45 82 71 106 172 316 214 444 178 546 99 1126 -218 1601 -153 229 -313 380
-565 528 -50 30 -88 58 -84 62 4 5 1 5 -5 1 -13 -7 -135 42 -141 56 -2 5 -7 6
-11 3 -5 -2 -32 4 -62 14 -68 24 -200 57 -261 66 -27 4 -48 10 -48 14 0 7 -11
8 -265 11 -327 4 -592 -56 -865 -196 -52 -27 -101 -48 -108 -47 -7 0 -11 -1
-8 -4 3 -3 -37 -35 -88 -72 -172 -121 -313 -255 -449 -425 -27 -34 -53 -61
-57 -61 -5 0 -22 18 -38 40 -85 115 -276 303 -409 402 -82 61 -232 153 -280
172 -18 7 -30 18 -26 24 3 6 1 7 -5 3 -6 -4 -33 4 -59 18 -26 13 -67 29 -90
36 -23 7 -41 16 -39 19 2 3 -6 7 -17 7 -12 1 -63 13 -113 27 -50 14 -117 28
-149 32 -31 4 -52 10 -47 14 6 4 -8 6 -31 6 -23 0 -96 3 -162 6 -66 3 -172 3
-235 -1z m365 -291 c166 -25 444 -116 429 -140 -3 -5 1 -6 9 -3 8 3 22 -2 31
-11 9 -9 16 -14 16 -11 0 11 81 -35 86 -49 3 -7 11 -12 18 -9 20 8 221 -137
221 -160 1 -6 7 -10 14 -8 18 4 72 -48 64 -61 -3 -6 -2 -7 4 -4 6 4 21 -5 34
-20 13 -14 18 -23 10 -18 -9 5 -12 4 -7 -3 4 -7 13 -12 19 -12 14 0 103 -101
100 -112 -2 -5 2 -8 8 -8 5 0 7 -5 3 -12 -4 -6 -3 -8 4 -4 14 8 114 -122 105
-138 -3 -6 -3 -8 2 -4 10 10 48 -39 40 -52 -4 -6 -2 -9 4 -8 17 5 93 -115 78
-124 -7 -4 -9 -8 -4 -8 4 0 8 1 10 3 6 5 35 -28 30 -35 -2 -4 2 -5 10 -3 7 3
21 20 32 38 47 81 151 230 220 317 95 119 214 242 226 234 5 -3 8 0 7 7 -4 15
115 116 212 181 366 242 844 316 1280 197 102 -28 241 -89 233 -102 -3 -6 -1
-7 6 -3 16 10 129 -54 236 -134 105 -79 259 -235 249 -252 -4 -6 -3 -8 3 -5
13 8 56 -50 47 -65 -4 -6 -3 -8 4 -4 23 14 168 -255 156 -291 -4 -13 -3 -14 4
-5 11 16 75 -154 76 -204 1 -17 4 -30 7 -28 14 8 41 -176 46 -309 6 -153 -5
-269 -43 -417 -40 -159 -118 -355 -137 -343 -6 3 -7 1 -3 -6 5 -7 -16 -52 -49
-108 -63 -104 -68 -105 -79 -13 -23 202 -119 435 -259 628 -21 29 -35 57 -32
62 4 6 3 9 -2 8 -5 -2 -52 40 -104 92 -52 52 -127 119 -167 149 -39 29 -69 58
-65 64 3 6 1 7 -5 3 -14 -9 -95 38 -85 48 5 4 4 7 -2 6 -23 -5 -35 1 -35 18 0
13 -2 14 -9 4 -7 -11 -11 -11 -22 0 -8 7 -19 14 -24 15 -30 5 -186 71 -179 75
5 3 3 3 -4 2 -7 -2 -55 7 -105 20 -500 130 -1026 -20 -1402 -398 -38 -39 -74
-69 -78 -68 -5 1 -6 -1 -3 -6 3 -5 -8 -24 -23 -43 -177 -215 -292 -521 -317
-847 -6 -80 -10 -94 -28 -104 -34 -18 -227 -23 -250 -6 -19 15 -27 68 -84 557
-17 146 -22 167 -42 183 -30 24 -56 23 -84 -5 -26 -26 -25 -19 -57 -322 -11
-110 -23 -207 -25 -215 -3 -8 -7 -46 -9 -85 -1 -38 -6 -92 -10 -118 l-7 -48
-24 22 c-20 19 -33 22 -97 20 -85 -2 -86 -2 -132 93 -55 112 -110 110 -181 -8
-46 -76 -51 -81 -110 -91 -56 -9 -101 12 -139 63 -37 51 -83 77 -117 69 -14
-4 -49 -34 -78 -67 l-52 -60 -89 0 c-86 0 -90 1 -99 25 -9 25 -33 205 -69 530
-18 160 -21 171 -46 192 -32 28 -45 29 -78 3 -30 -24 -25 5 -73 -440 -21 -190
-39 -347 -42 -350 -2 -3 -9 2 -15 11 -22 29 -55 39 -126 39 l-71 0 -26 41
c-14 22 -23 47 -20 55 3 7 2 13 -2 12 -4 -1 -17 3 -29 10 -34 19 -71 4 -101
-41 l-26 -40 -39 44 c-62 71 -169 237 -219 339 -245 501 -213 1082 86 1548 25
40 51 70 56 67 5 -3 7 0 4 8 -7 20 220 252 236 242 9 -5 11 -4 6 3 -15 25 218
170 374 232 126 51 311 92 460 103 70 6 248 -2 325 -14z m2850 -1404 c84 -16
158 -39 151 -46 -2 -2 8 -4 22 -5 63 -2 371 -181 356 -206 -4 -6 -2 -8 3 -5 6
4 19 -3 29 -16 12 -13 13 -17 3 -9 -13 9 -16 9 -16 -2 0 -8 8 -13 17 -11 21 4
24 2 88 -68 31 -33 50 -62 46 -69 -4 -6 -3 -8 3 -5 18 11 150 -193 138 -213
-3 -5 -2 -10 3 -10 10 0 35 -54 35 -76 0 -8 3 -14 7 -14 11 0 44 -111 44 -152
1 -20 4 -34 8 -32 25 15 32 -336 9 -453 -8 -44 -18 -70 -24 -66 -6 4 -8 0 -4
-10 3 -9 -1 -40 -9 -69 -21 -71 -94 -219 -104 -213 -5 3 -12 0 -16 -6 -4 -8
-3 -9 4 -5 15 9 15 1 1 -25 -9 -17 -13 -18 -27 -7 -15 12 -16 11 -4 -4 12 -14
10 -21 -9 -47 -12 -17 -26 -28 -30 -25 -4 2 -11 -1 -15 -7 -4 -8 -3 -9 4 -5
21 13 12 -6 -20 -43 -18 -20 -36 -35 -41 -33 -5 1 -6 -2 -3 -7 9 -14 -137
-145 -236 -211 -66 -44 -96 -59 -112 -55 -13 4 -16 3 -9 -2 12 -9 12 -9 -90
-53 -65 -27 -206 -62 -228 -57 -10 3 -20 0 -22 -7 -3 -8 -55 -11 -173 -11
-180 0 -266 13 -403 60 -122 41 -289 133 -273 150 4 5 1 5 -6 1 -15 -9 -55 22
-46 35 3 5 -2 6 -10 3 -21 -8 -185 157 -250 251 -255 368 -282 846 -71 1254
51 98 147 227 165 223 7 -2 10 3 7 12 -9 24 138 152 170 148 16 -2 22 1 18 8
-3 6 -12 7 -18 3 -7 -4 -6 1 2 11 8 9 20 15 28 12 8 -3 12 -2 9 3 -16 25 257
157 303 146 20 -4 22 -3 11 5 -8 5 -12 10 -8 10 3 0 35 7 70 16 35 10 90 20
123 25 87 11 307 2 400 -16z m-3526 -1275 c25 -49 64 -68 141 -71 111 -4 230
3 237 14 4 6 1 7 -8 2 -8 -4 4 12 26 36 22 24 42 46 43 49 2 3 17 -10 32 -29
54 -63 74 -71 192 -71 59 0 118 4 131 9 14 6 39 30 57 55 17 25 34 46 39 46 4
0 15 -16 24 -35 9 -20 28 -40 42 -47 13 -6 23 -14 21 -17 -2 -3 33 -7 77 -9
45 -2 87 -8 94 -13 6 -6 17 -33 23 -62 6 -29 18 -73 27 -99 13 -41 19 -48 48
-54 40 -7 71 8 78 38 3 13 15 115 27 228 21 194 33 254 38 192 4 -51 22 -133
34 -160 7 -15 33 -37 58 -50 42 -22 53 -23 180 -19 74 3 142 8 151 12 14 5 18
-4 24 -57 12 -106 60 -277 108 -385 34 -76 42 -104 33 -113 -8 -8 -7 -10 4 -5
12 4 28 -13 58 -60 23 -37 40 -71 36 -76 -3 -5 -1 -8 3 -7 5 2 32 -24 60 -57
28 -33 72 -82 98 -110 27 -27 47 -54 46 -60 -1 -5 1 -7 5 -3 8 9 90 -63 86
-75 -1 -5 1 -6 6 -3 13 8 53 -24 46 -36 -4 -6 -2 -8 4 -4 6 3 41 -13 79 -38
125 -80 265 -141 406 -177 45 -11 88 -22 96 -25 10 -3 -12 -32 -69 -89 -46
-46 -88 -81 -93 -78 -6 3 -7 2 -4 -4 3 -5 -202 -217 -456 -471 l-462 -461
-1195 1192 c-656 655 -1193 1195 -1192 1200 1 4 -3 7 -10 7 -15 0 -48 30 -48
43 0 6 9 2 19 -7 29 -27 90 -45 148 -46 62 0 73 -12 98 -108 21 -84 33 -107
60 -122 27 -15 81 -5 89 16 4 11 45 351 57 477 1 7 8 -28 15 -78 8 -49 22
-105 33 -125z m5103 -1463 c402 -397 402 -397 379 -484 -14 -50 -59 -99 -101
-108 -71 -16 -76 -12 -473 383 l-377 376 97 98 c54 54 100 98 103 98 3 -1 170
-164 372 -363z"/>
</g>
</svg>
